<svg id="_-s-icon_sousu" data-name="-s-icon_sousu" xmlns="http://www.w3.org/2000/svg" width="18.181" height="17.681" viewBox="0 0 18.181 17.681">
  <defs>
    <style>
      .cls-1 {
        fill: none;
      }

      .cls-2, .cls-3 {
        stroke: none;
      }

      .cls-3 {
        fill: #939da6;
      }
    </style>
  </defs>
  <g id="icon_sousu" class="cls-1" transform="translate(0 0)">
    <path class="cls-2" d="M13.645,15.267a8.493,8.493,0,1,1,2.032-2.211l2.5,2.5L16.06,17.681Z"/>
    <path class="cls-3" d="M 8.500083923339844 14.00008010864258 C 9.714545249938965 14.00008010864258 10.86516094207764 13.61269569396973 11.82762241363525 12.87984943389893 L 12.61555194854736 12.27983283996582 L 13.14593029022217 11.44600296020508 C 13.7047758102417 10.56738758087158 14.00016117095947 9.54869556427002 14.00016117095947 8.500002861022949 C 14.00016117095947 5.467310905456543 11.53285312652588 3.000003099441528 8.500083923339844 3.000003099441528 C 5.467314720153809 3.000003099441528 3.000006914138794 5.467310905456543 3.000006914138794 8.500002861022949 C 3.000006914138794 11.53277206420898 5.467314720153809 14.00008010864258 8.500083923339844 14.00008010864258 M 16.06008338928223 17.68138694763184 L 13.6450834274292 15.2666187286377 C 12.21677589416504 16.35423469543457 10.43385314941406 17.00008010864258 8.500083923339844 17.00008010864258 C 3.805622339248657 17.00008010864258 6.888169536978239e-06 13.19446468353271 6.888169536978239e-06 8.500002861022949 C 6.888169536978239e-06 3.805618524551392 3.805622339248657 3.073472271353239e-06 8.500083923339844 3.073472271353239e-06 C 13.19446849822998 3.073472271353239e-06 17.00016021728516 3.805618524551392 17.00016021728516 8.500002861022949 C 17.00016021728516 10.17623424530029 16.5147762298584 11.73931121826172 15.67723751068115 13.05607986450195 L 18.1813907623291 15.5605411529541 L 16.06008338928223 17.68138694763184 Z"/>
  </g>
</svg>
